<svg width="324" height="65" viewBox="0 0 324 65" fill="none" xmlns="http://www.w3.org/2000/svg">
<g clip-path="url(#clip0_19_52)">
<path d="M254.903 54.0888L255.484 63.6067C253.974 64.4192 249.91 64.7674 247.935 64.7674C237.716 64.7674 230.4 58.3834 230.168 47.1245H240.968C241.432 51.8834 245.148 54.7852 249.561 54.7852C250.606 54.6692 253.974 54.3209 254.903 54.0888ZM108.348 64.0709H119.148V4.06201H108.348V64.0709ZM203.226 26.1156C208.335 26.1156 212.632 28.6692 214.606 32.3834L223.664 27.2763C220.181 20.312 212.4 15.7852 203.226 15.7852C189.174 15.7852 178.49 26.4638 178.49 40.5084C178.49 54.5531 189.29 64.9995 203.342 64.9995C212.052 64.9995 219.484 61.0531 223.664 54.7852L214.606 49.2138C212.284 52.5799 208.103 54.6692 203.342 54.6692C195.213 54.6692 189.174 48.5174 189.174 40.3924C189.174 32.2674 195.097 26.1156 203.226 26.1156ZM102.194 38.3031C102.194 25.6513 92.2064 15.7852 79.4323 15.7852C65.729 15.7852 55.0452 26.4638 55.0452 40.1602C55.0452 54.3209 65.9613 64.9995 79.6645 64.9995C89.4193 64.9995 97.4322 61.1692 100.916 54.7852L92.3226 49.2138C90.1161 52.9281 85.2387 55.2495 79.8968 55.2495C72.2323 55.2495 67.0064 50.6067 65.8452 42.9459H101.845C102.077 41.437 102.194 39.5799 102.194 38.3031ZM66.1935 34.7049C67.8193 28.5531 72.3484 24.6067 78.8516 24.6067C85.3548 24.6067 90.2322 28.7852 90.8129 34.7049H66.1935ZM172.452 38.3031C172.452 25.6513 162.464 15.7852 149.69 15.7852C135.987 15.7852 125.303 26.4638 125.303 40.1602C125.303 54.3209 136.219 64.9995 149.923 64.9995C159.677 64.9995 167.69 61.1692 171.174 54.7852L162.581 49.2138C160.374 52.9281 155.497 55.2495 150.155 55.2495C142.49 55.2495 137.264 50.6067 136.103 42.9459H172.103C172.335 41.437 172.452 39.5799 172.452 38.3031ZM136.335 34.7049C137.961 28.5531 142.49 24.6067 148.994 24.6067C155.497 24.6067 160.374 28.7852 160.955 34.7049H136.335ZM306.813 38.3031C306.813 25.6513 296.826 15.7852 284.052 15.7852C270.348 15.7852 259.664 26.4638 259.664 40.1602C259.664 54.3209 270.581 64.9995 284.284 64.9995C294.039 64.9995 302.052 61.1692 305.535 54.7852L296.942 49.2138C294.735 52.9281 289.858 55.2495 284.516 55.2495C276.852 55.2495 271.626 50.6067 270.464 42.9459H306.464C306.697 41.437 306.813 39.5799 306.813 38.3031ZM270.813 34.7049C272.439 28.5531 276.968 24.6067 283.471 24.6067C289.974 24.6067 294.852 28.7852 295.432 34.7049H270.813ZM312.968 64.0709H323.768V4.06201H312.968V64.0709ZM35.7677 52.9281C33.2129 54.5531 30.0774 55.3656 26.4774 55.3656C22.6452 55.3656 19.2774 54.3209 16.3742 52.2317C13.471 50.1424 11.6129 47.3567 10.6839 43.6424L0 45.2674C0.580645 49.2138 2.09032 52.6959 4.4129 55.7138C6.73548 58.7317 9.75484 60.937 13.471 62.562C17.1871 64.187 21.2516 64.9995 25.7806 64.9995C30.1935 64.9995 34.2581 64.3031 37.9742 62.7942C41.6903 61.2852 44.5935 59.0799 46.9161 56.1781C48.8903 53.6245 49.9355 50.6067 50.1677 47.1245H39.4839C39.2516 49.4459 38.0903 51.4192 35.7677 52.9281Z" fill="white"/>
<path d="M240.852 42.9454H230.052V26.9276V16.7133V4.06151H240.852V16.7133H255.02V26.9276H240.852V42.9454ZM47.6132 36.3294C45.8712 34.0079 43.7809 32.3829 41.4583 31.2222C39.1357 30.1776 36.4648 29.249 33.5615 28.4365L22.4132 25.1865C19.6261 24.4901 17.4196 23.5615 15.6777 22.5169C14.0519 21.4722 13.1228 19.8472 13.1228 17.6419C13.1228 16.0169 13.7035 14.624 14.7486 13.3472C15.7938 12.0704 17.3035 11.1419 19.1615 10.4454C21.0196 9.74901 22.9938 9.51686 24.968 9.51686C28.3357 9.63293 31.239 10.5615 33.7938 12.4186C36.3486 14.2758 37.9744 16.8294 38.6712 19.9633L49.7035 18.1061C48.7745 14.2758 47.1486 10.9097 44.9422 8.24008C42.7357 5.57043 39.9486 3.48115 36.4648 2.08829C33.097 0.695434 29.2648 -0.117065 25.0841 -0.117065C20.9035 -0.000994012 17.0712 0.579363 13.5874 2.08829C10.1035 3.48115 7.43251 5.57043 5.45832 8.35615C3.48413 11.0258 2.43896 14.3919 2.43896 18.2222C2.43896 22.9811 3.71638 26.5794 6.38735 28.9008C9.05832 31.2222 12.3099 32.9633 16.2583 34.0079L32.5164 38.8829C34.9551 39.5794 36.697 40.624 37.8583 41.7847C38.2067 42.1329 38.439 42.4811 38.6712 42.9454H50.0519C49.8196 40.2758 48.8906 38.0704 47.6132 36.3294Z" fill="white"/>
</g>
<defs>
<clipPath id="clip0_19_52">
<rect width="324" height="65" fill="white"/>
</clipPath>
</defs>
</svg>
